<svg xmlns="http://www.w3.org/2000/svg" width="1620" height="128" viewBox="17 18 1620 128"><path d="M101.1 92.2L101.1 106.9C91.3 112.2 79.9 114.9 67.1 114.9 56.7 114.9 47.8 112.8 40.6 108.6 33.3 104.4 27.6 98.6 23.3 91.3 19.1 83.9 17 76 17 67.4 17 53.9 21.8 42.4 31.5 33.2 41.2 23.9 53.2 19.3 67.4 19.3 77.2 19.3 88.1 21.8 100.1 27L100.1 41.3C89.1 35.1 78.5 32 68 32 57.4 32 48.5 35.3 41.4 42.1 34.4 48.8 30.8 57.3 30.8 67.4 30.8 77.7 34.3 86.1 41.3 92.7 48.2 99.3 57.1 102.6 67.9 102.6 79.2 102.6 90.3 99.1 101.1 92.2L101.1 92.2ZM142.4 52.2C151.7 52.2 159.5 55.2 165.7 61.3 171.9 67.3 175 74.9 175 84 175 92.9 171.9 100.2 165.6 106.1 159.3 112 151.4 114.9 141.9 114.9 132.6 114.9 124.9 111.9 118.7 106 112.5 100 109.4 92.6 109.4 83.7 109.4 74.7 112.6 67.2 118.8 61.2 125.1 55.2 132.9 52.2 142.4 52.2L142.4 52.2ZM141.7 63.2C135.9 63.2 131.1 65.1 127.4 68.9 123.6 72.7 121.7 77.6 121.7 83.5 121.7 89.4 123.7 94.2 127.5 97.9 131.3 101.7 136.2 103.5 142.3 103.5 148.2 103.5 153.1 101.6 156.9 97.9 160.7 94.1 162.6 89.3 162.6 83.4 162.6 77.6 160.6 72.7 156.7 68.9 152.7 65.1 147.7 63.2 141.7 63.2L141.7 63.2ZM185.9 20.5L198.1 20.5 198.1 113.8 185.9 113.8 185.9 20.5ZM265.2 84.1L222 84.1C222.3 90 224.3 94.7 227.9 98.2 231.5 101.7 236.2 103.4 242 103.4 250 103.4 257.4 100.9 264.1 95.9L264.1 107.8C260.4 110.3 256.7 112.1 253 113.1 249.3 114.2 245 114.7 240.1 114.7 233.3 114.7 227.8 113.3 223.6 110.5 219.5 107.7 216.1 104 213.6 99.2 211.1 94.5 209.8 89 209.8 82.7 209.8 73.4 212.5 65.8 217.8 59.9 223.1 54.1 229.9 51.1 238.4 51.1 246.6 51.1 253.1 54 257.9 59.7 262.8 65.4 265.2 73 265.2 82.6L265.2 84.1ZM222.2 76.9L253.2 76.9C252.9 72 251.4 68.3 248.8 65.6 246.3 63 242.8 61.7 238.4 61.7 234 61.7 230.5 63 227.7 65.6 224.9 68.3 223.1 72 222.2 76.9L222.2 76.9ZM272.4 73.6C272.4 67 274.8 61.9 279.6 58.1 284.4 54.2 290.9 52.3 299.2 52.3L324.5 52.3 324.5 61.8 312.1 61.8C314.5 64.3 316.2 66.5 317.1 68.5 318 70.5 318.5 72.8 318.5 75.4 318.5 78.6 317.6 81.8 315.8 84.8 313.9 87.9 311.6 90.3 308.7 92 305.8 93.6 301.1 94.9 294.6 95.9 290 96.6 287.7 98.2 287.7 100.6 287.7 102.1 288.6 103.2 290.3 104.2 292 105.1 295.1 106 299.6 107 307.1 108.6 312 109.9 314.1 110.9 316.3 111.8 318.2 113.1 320 114.9 322.9 117.8 324.4 121.5 324.4 126 324.4 131.8 321.8 136.5 316.6 139.9 311.4 143.4 304.5 145.1 295.8 145.1 287 145.1 280 143.4 274.8 139.9 269.5 136.4 266.9 131.7 266.9 125.8 266.9 117.5 272.1 112.1 282.3 109.7 278.3 107.1 276.2 104.5 276.2 101.9 276.2 100 277.1 98.2 278.8 96.6 280.6 95 283 93.8 286 93 276.9 89 272.4 82.5 272.4 73.6L272.4 73.6ZM295.2 62.9C291.9 62.9 289.1 64 286.8 66.2 284.5 68.5 283.4 71.1 283.4 74.3 283.4 77.4 284.5 80 286.8 82.1 289 84.2 291.9 85.2 295.4 85.2 298.8 85.2 301.7 84.2 304 82 306.3 79.9 307.4 77.3 307.4 74.1 307.4 70.9 306.2 68.2 303.9 66.1 301.6 64 298.7 62.9 295.2 62.9L295.2 62.9ZM292.4 116.7C288.3 116.7 284.9 117.6 282.3 119.3 279.7 121 278.4 123.3 278.4 126 278.4 132.3 284.1 135.5 295.5 135.5 300.9 135.5 305.1 134.7 308 133.1 311 131.5 312.5 129.3 312.5 126.4 312.5 123.5 310.6 121.2 306.9 119.4 303.1 117.6 298.3 116.7 292.4 116.7L292.4 116.7ZM337.4 26.5C339.4 26.5 341.1 27.2 342.5 28.6 343.9 29.9 344.7 31.6 344.7 33.6 344.7 35.6 343.9 37.3 342.5 38.7 341.1 40.1 339.4 40.8 337.4 40.8 335.5 40.8 333.9 40.1 332.4 38.7 331 37.2 330.3 35.5 330.3 33.6 330.3 31.8 331 30.1 332.4 28.7 333.9 27.2 335.5 26.5 337.4 26.5L337.4 26.5ZM331.4 52.3L343.5 52.3 343.5 113.8 331.4 113.8 331.4 52.3ZM387.7 52.2C397 52.2 404.8 55.2 411 61.3 417.2 67.3 420.3 74.9 420.3 84 420.3 92.9 417.1 100.2 410.8 106.1 404.6 112 396.7 114.9 387.1 114.9 377.9 114.9 370.2 111.9 364 106 357.8 100 354.7 92.6 354.7 83.7 354.7 74.7 357.9 67.2 364.1 61.2 370.4 55.2 378.2 52.2 387.7 52.2L387.7 52.2ZM387 63.2C381.2 63.2 376.4 65.1 372.6 68.9 368.9 72.7 367 77.6 367 83.5 367 89.4 368.9 94.2 372.8 97.9 376.6 101.7 381.5 103.5 387.5 103.5 393.5 103.5 398.4 101.6 402.2 97.9 406 94.1 407.9 89.3 407.9 83.4 407.9 77.6 405.9 72.7 402 68.9 398 65.1 393 63.2 387 63.2L387 63.2ZM483.9 19.9L493.3 19.9 535.1 113.8 521.4 113.8 508.9 86.2 469.3 86.2 457.5 113.8 443.8 113.8 483.9 19.9ZM503.5 74.3L488.4 40.4 474.5 74.3 503.5 74.3ZM591.2 69.2L591.2 113.8 579 113.8 579 79.6C579 72.8 578.1 68 576.3 65.3 574.4 62.6 571.3 61.3 566.7 61.3 564.2 61.3 561.8 61.9 559.7 63 557.6 64.2 555.2 66.2 552.5 69.2L552.5 113.8 540.3 113.8 540.3 52.3 552.5 52.3 552.5 60.4C558.7 54.2 564.7 51.1 570.7 51.1 578.4 51.1 584.5 54.8 588.8 62.2 595.3 54.7 602.1 51 609.1 51 615.1 51 620 53.2 623.9 57.6 627.7 61.9 629.7 68.6 629.7 77.5L629.7 113.8 617.5 113.8 617.5 77.4C617.5 72.3 616.4 68.4 614.4 65.6 612.3 62.9 609.3 61.6 605.3 61.6 600.3 61.6 595.6 64.1 591.2 69.2L591.2 69.2ZM695.9 84.1L652.7 84.1C653 90 655 94.7 658.6 98.2 662.2 101.7 666.9 103.4 672.7 103.4 680.7 103.4 688.1 100.9 694.8 95.9L694.8 107.8C691.1 110.3 687.4 112.1 683.7 113.1 680 114.2 675.7 114.7 670.8 114.7 664 114.7 658.5 113.3 654.3 110.5 650.2 107.7 646.8 104 644.3 99.2 641.8 94.5 640.5 89 640.5 82.7 640.5 73.4 643.2 65.8 648.5 59.9 653.8 54.1 660.6 51.1 669.1 51.1 677.3 51.1 683.8 54 688.6 59.7 693.5 65.4 695.9 73 695.9 82.6L695.9 84.1ZM652.9 76.9L683.9 76.9C683.6 72 682.1 68.3 679.5 65.6 677 63 673.5 61.7 669.1 61.7 664.7 61.7 661.2 63 658.4 65.6 655.6 68.3 653.8 72 652.9 76.9L652.9 76.9ZM719.3 52.3L719.3 66.4 719.9 65.4C725.8 55.9 731.7 51.1 737.6 51.1 742.2 51.1 746.9 53.5 751.9 58.1L745.5 68.8C741.3 64.8 737.4 62.8 733.8 62.8 729.8 62.8 726.4 64.6 723.6 68.4 720.7 72.1 719.3 76.6 719.3 81.7L719.3 113.8 707 113.8 707 52.3 719.3 52.3ZM763.9 26.5C765.9 26.5 767.6 27.2 769 28.6 770.4 29.9 771.2 31.6 771.2 33.6 771.2 35.6 770.4 37.3 769 38.7 767.6 40.1 765.9 40.8 763.9 40.8 762 40.8 760.3 40.1 758.9 38.7 757.5 37.2 756.8 35.5 756.8 33.6 756.8 31.8 757.5 30.1 758.9 28.7 760.3 27.2 762 26.5 763.9 26.5L763.9 26.5ZM757.9 52.3L770 52.3 770 113.8 757.9 113.8 757.9 52.3ZM830.9 99.4L830.9 111.5C824.8 113.7 818.8 114.9 813 114.9 803.3 114.9 795.7 112 789.9 106.3 784.2 100.6 781.3 93 781.3 83.4 781.3 73.7 784.1 65.9 789.7 60 795.3 54.1 802.6 51.1 811.7 51.1 814.8 51.1 817.7 51.4 820.2 52 822.7 52.6 825.8 53.8 829.5 55.4L829.5 68.4C823.4 64.5 817.7 62.5 812.4 62.5 806.9 62.5 802.4 64.4 798.9 68.3 795.4 72.1 793.6 77 793.6 83 793.6 89.3 795.5 94.3 799.4 98 803.2 101.7 808.3 103.5 814.8 103.5 819.4 103.5 824.8 102.2 830.9 99.4L830.9 99.4ZM880.5 76.9L880.5 103C880.5 105.1 881.2 106.1 882.6 106.1 884.1 106.1 886.4 105 889.5 102.9L889.5 110.3C886.7 112.1 884.5 113.3 882.8 113.9 881.2 114.6 879.4 114.9 877.6 114.9 872.4 114.9 869.3 112.8 868.4 108.7 863.2 112.7 857.7 114.7 851.9 114.7 847.6 114.7 844 113.3 841.2 110.5 838.3 107.7 836.9 104.1 836.9 99.8 836.9 96 838.3 92.5 841.1 89.5 843.9 86.4 847.8 84 852.9 82.2L868.5 76.9 868.5 73.6C868.5 66.2 864.8 62.5 857.4 62.5 850.8 62.5 844.3 65.9 838 72.8L838 59.5C842.8 53.9 849.6 51.1 858.4 51.1 865.1 51.1 870.4 52.9 874.4 56.4 875.7 57.5 876.9 58.9 878 60.8 879.1 62.6 879.7 64.5 880 66.3 880.3 68.2 880.5 71.7 880.5 76.9L880.5 76.9ZM868.5 101.7L868.5 83.4 860.4 86.6C856.2 88.2 853.3 89.9 851.6 91.5 849.9 93.2 849 95.3 849 97.8 849 100.3 849.8 102.4 851.4 104 853.1 105.6 855.2 106.4 857.8 106.4 861.6 106.4 865.2 104.8 868.5 101.7L868.5 101.7ZM909.6 52.3L909.6 60.2C915 54.1 921.2 51.1 928.1 51.1 931.9 51.1 935.5 52.1 938.8 54.1 942.1 56.1 944.6 58.8 946.3 62.3 948 65.7 948.9 71.2 948.9 78.7L948.9 113.8 936.7 113.8 936.7 78.8C936.7 72.5 935.7 68 933.8 65.3 931.9 62.6 928.7 61.3 924.2 61.3 918.5 61.3 913.6 64.2 909.6 69.9L909.6 113.8 897.1 113.8 897.1 52.3 909.6 52.3ZM992.4 52.2C1001.8 52.2 1009.5 55.2 1015.7 61.3 1021.9 67.3 1025 74.9 1025 84 1025 92.9 1021.9 100.2 1015.6 106.1 1009.3 112 1001.4 114.9 991.9 114.9 982.6 114.9 974.9 111.9 968.7 106 962.6 100 959.5 92.6 959.5 83.7 959.5 74.7 962.6 67.2 968.8 61.2 975.1 55.2 983 52.2 992.4 52.2L992.4 52.2ZM991.7 63.2C985.9 63.2 981.1 65.1 977.4 68.9 973.6 72.7 971.8 77.6 971.8 83.5 971.8 89.4 973.7 94.2 977.5 97.9 981.3 101.7 986.3 103.5 992.3 103.5 998.2 103.5 1003.1 101.6 1006.9 97.9 1010.7 94.1 1012.6 89.3 1012.6 83.4 1012.6 77.6 1010.7 72.7 1006.7 68.9 1002.7 65.1 997.7 63.2 991.7 63.2L991.7 63.2ZM1111.9 20.5L1124.1 20.5 1124.1 113.8 1098.1 113.8C1089 113.8 1081.8 110.9 1076.4 105.2 1071 99.4 1068.2 91.7 1068.2 82.1 1068.2 73 1071.1 65.6 1076.8 59.8 1082.4 53.9 1089.7 51 1098.5 51 1102.6 51 1107.1 51.9 1111.9 53.6L1111.9 20.5ZM1111.9 103.4L1111.9 64.4C1108.1 62.5 1104.3 61.6 1100.4 61.6 1094.3 61.6 1089.5 63.5 1085.9 67.5 1082.3 71.5 1080.5 76.8 1080.5 83.5 1080.5 89.9 1082.1 94.7 1085.2 98.2 1087.1 100.2 1089.1 101.6 1091.2 102.3 1093.3 103 1097 103.4 1102.5 103.4L1111.9 103.4ZM1190.2 84.1L1146.9 84.1C1147.2 90 1149.2 94.7 1152.8 98.2 1156.5 101.7 1161.2 103.4 1166.9 103.4 1174.9 103.4 1182.3 100.9 1189.1 95.9L1189.1 107.8C1185.3 110.3 1181.6 112.1 1178 113.1 1174.3 114.2 1170 114.7 1165 114.7 1158.3 114.7 1152.8 113.3 1148.6 110.5 1144.4 107.7 1141.1 104 1138.5 99.2 1136 94.5 1134.8 89 1134.8 82.7 1134.8 73.4 1137.4 65.8 1142.7 59.9 1148 54.1 1154.9 51.1 1163.4 51.1 1171.5 51.1 1178 54 1182.9 59.7 1187.7 65.4 1190.2 73 1190.2 82.6L1190.2 84.1ZM1147.2 76.9L1178.1 76.9C1177.8 72 1176.4 68.3 1173.8 65.6 1171.2 63 1167.7 61.7 1163.4 61.7 1159 61.7 1155.4 63 1152.6 65.6 1149.9 68.3 1148 72 1147.2 76.9L1147.2 76.9ZM1212.3 20.3L1290.3 20.3 1290.3 32.2 1257.7 32.2 1257.7 113.8 1244.3 113.8 1244.3 32.2 1212.3 32.2 1212.3 20.3ZM1307.3 52.2C1316.6 52.2 1324.4 55.2 1330.6 61.3 1336.8 67.3 1339.9 74.9 1339.9 84 1339.9 92.9 1336.7 100.2 1330.5 106.1 1324.2 112 1316.3 114.9 1306.7 114.9 1297.5 114.9 1289.8 111.9 1283.6 106 1277.4 100 1274.3 92.6 1274.3 83.7 1274.3 74.7 1277.5 67.2 1283.7 61.2 1290 55.2 1297.8 52.2 1307.3 52.2L1307.3 52.2ZM1306.6 63.2C1300.8 63.2 1296 65.1 1292.2 68.9 1288.5 72.7 1286.6 77.6 1286.6 83.5 1286.6 89.4 1288.5 94.2 1292.4 97.9 1296.2 101.7 1301.1 103.5 1307.1 103.5 1313.1 103.5 1318 101.6 1321.8 97.9 1325.6 94.1 1327.5 89.3 1327.5 83.4 1327.5 77.6 1325.5 72.7 1321.6 68.9 1317.6 65.1 1312.6 63.2 1306.6 63.2L1306.6 63.2ZM1363.6 52.3L1363.6 66.4 1364.2 65.4C1370.1 55.9 1376 51.1 1381.9 51.1 1386.5 51.1 1391.3 53.5 1396.2 58.1L1389.8 68.8C1385.6 64.8 1381.7 62.8 1378.1 62.8 1374.1 62.8 1370.8 64.6 1367.9 68.4 1365 72.1 1363.6 76.6 1363.6 81.7L1363.6 113.8 1351.3 113.8 1351.3 52.3 1363.6 52.3ZM1413.6 52.3L1413.6 66.4 1414.3 65.4C1420.1 55.9 1426 51.1 1431.9 51.1 1436.5 51.1 1441.3 53.5 1446.3 58.1L1439.8 68.8C1435.6 64.8 1431.7 62.8 1428.1 62.8 1424.2 62.8 1420.8 64.6 1417.9 68.4 1415 72.1 1413.6 76.6 1413.6 81.7L1413.6 113.8 1401.4 113.8 1401.4 52.3 1413.6 52.3ZM1501.6 84.1L1458.3 84.1C1458.6 90 1460.6 94.7 1464.2 98.2 1467.9 101.7 1472.6 103.4 1478.3 103.4 1486.3 103.4 1493.7 100.9 1500.5 95.9L1500.5 107.8C1496.7 110.3 1493 112.1 1489.4 113.1 1485.7 114.2 1481.4 114.7 1476.4 114.7 1469.7 114.7 1464.2 113.3 1460 110.5 1455.8 107.7 1452.5 104 1449.9 99.2 1447.4 94.5 1446.2 89 1446.2 82.7 1446.2 73.4 1448.8 65.8 1454.1 59.9 1459.4 54.1 1466.3 51.1 1474.8 51.1 1482.9 51.1 1489.4 54 1494.3 59.7 1499.1 65.4 1501.6 73 1501.6 82.6L1501.6 84.1ZM1458.6 76.9L1489.5 76.9C1489.2 72 1487.8 68.3 1485.2 65.6 1482.6 63 1479.1 61.7 1474.8 61.7 1470.4 61.7 1466.8 63 1464 65.6 1461.3 68.3 1459.4 72 1458.6 76.9L1458.6 76.9ZM1541.3 52.2C1550.6 52.2 1558.4 55.2 1564.6 61.3 1570.8 67.3 1573.9 74.9 1573.9 84 1573.9 92.9 1570.7 100.2 1564.5 106.1 1558.2 112 1550.3 114.9 1540.7 114.9 1531.5 114.9 1523.8 111.9 1517.6 106 1511.4 100 1508.3 92.6 1508.3 83.7 1508.3 74.7 1511.5 67.2 1517.7 61.2 1524 55.2 1531.8 52.2 1541.3 52.2L1541.3 52.2ZM1540.6 63.2C1534.8 63.2 1530 65.1 1526.2 68.9 1522.5 72.7 1520.6 77.6 1520.6 83.5 1520.6 89.4 1522.6 94.2 1526.4 97.9 1530.2 101.7 1535.1 103.5 1541.1 103.5 1547.1 103.5 1552 101.6 1555.8 97.9 1559.6 94.1 1561.5 89.3 1561.5 83.4 1561.5 77.6 1559.5 72.7 1555.6 68.9 1551.6 65.1 1546.6 63.2 1540.6 63.2L1540.6 63.2ZM1554.8 19L1539.7 39 1532.2 39 1541.2 19 1554.8 19ZM1596.7 52.3L1596.7 60.2C1602.1 54.1 1608.3 51.1 1615.2 51.1 1619.1 51.1 1622.6 52.1 1625.9 54.1 1629.2 56.1 1631.7 58.8 1633.4 62.3 1635.1 65.7 1636 71.2 1636 78.7L1636 113.8 1623.8 113.8 1623.8 78.8C1623.8 72.5 1622.9 68 1621 65.3 1619.1 62.6 1615.8 61.3 1611.3 61.3 1605.6 61.3 1600.7 64.2 1596.7 69.9L1596.7 113.8 1584.3 113.8 1584.3 52.3 1596.7 52.3Z" fill="#FFF"/></svg>